<?xml version="1.0" encoding="UTF-8"?>
<svg width="180" height="40" viewBox="0 0 180 40" fill="none" xmlns="http://www.w3.org/2000/svg">
  <path d="M10 8L15 3H25L30 8V22L25 27H15L10 22V8Z" stroke="#2563EB" stroke-width="2"/>
  <path d="M20 10V20M15 15H25" stroke="#2563EB" stroke-width="2"/>
  <path d="M40 10H44.364C45.7973 10 46.9493 10.308 47.82 10.924C48.7 11.5307 49.14 12.4107 49.14 13.564C49.14 14.3453 48.9333 14.9893 48.52 15.496C48.1067 15.9933 47.5533 16.3293 46.86 16.504V16.616C47.7213 16.7613 48.4093 17.108 48.924 17.656C49.4387 18.204 49.696 18.9013 49.696 19.748C49.696 21.0307 49.2267 22.0013 48.288 22.66C47.3493 23.3187 46.104 23.648 44.552 23.648H40V10ZM44.168 15.692C45.0947 15.692 45.7787 15.5187 46.22 15.172C46.6613 14.8253 46.882 14.34 46.882 13.716C46.882 13.092 46.6613 12.6253 46.22 12.316C45.7787 11.9973 45.0947 11.838 44.168 11.838H42.342V15.692H44.168ZM44.58 21.81C45.5653 21.81 46.3093 21.6173 46.812 21.232C47.3147 20.8467 47.566 20.2867 47.566 19.552C47.566 18.8173 47.3147 18.2667 46.812 17.9C46.3093 17.5333 45.5653 17.35 44.58 17.35H42.342V21.81H44.58ZM57.8153 23.872C56.5699 23.872 55.4366 23.6187 54.4153 23.112C53.4033 22.6053 52.6033 21.8893 52.0153 20.964C51.4366 20.0293 51.1473 18.9573 51.1473 17.748C51.1473 16.5387 51.4366 15.4713 52.0153 14.546C52.6033 13.6113 53.4033 12.8907 54.4153 12.384C55.4366 11.8773 56.5699 11.624 57.8153 11.624C59.0606 11.624 60.1939 11.8773 61.2153 12.384C62.2366 12.8907 63.0319 13.6113 63.6013 14.546C64.1799 15.4713 64.4693 16.5387 64.4693 17.748C64.4693 18.9573 64.1799 20.0293 63.6013 20.964C63.0319 21.8893 62.2366 22.6053 61.2153 23.112C60.1939 23.6187 59.0606 23.872 57.8153 23.872ZM57.8153 21.894C58.5939 21.894 59.2826 21.7347 59.8813 21.416C60.4799 21.088 60.9493 20.6233 61.2893 20.022C61.6293 19.4113 61.7993 18.6627 61.7993 17.776C61.7993 16.8893 61.6293 16.1407 61.2893 15.53C60.9493 14.9193 60.4799 14.4547 59.8813 14.136C59.2826 13.8173 58.5939 13.658 57.8153 13.658C57.0366 13.658 56.3479 13.8173 55.7493 14.136C55.1506 14.4547 54.6766 14.9193 54.3273 15.53C53.9873 16.1407 53.8173 16.8893 53.8173 17.776C53.8173 18.6627 53.9873 19.4113 54.3273 20.022C54.6766 20.6233 55.1506 21.088 55.7493 21.416C56.3479 21.7347 57.0366 21.894 57.8153 21.894ZM72.3698 23.872C71.1244 23.872 69.9911 23.6187 68.9698 23.112C67.9578 22.6053 67.1578 21.8893 66.5698 20.964C65.9911 20.0293 65.7018 18.9573 65.7018 17.748C65.7018 16.5387 65.9911 15.4713 66.5698 14.546C67.1578 13.6113 67.9578 12.8907 68.9698 12.384C69.9911 11.8773 71.1244 11.624 72.3698 11.624C73.6151 11.624 74.7484 11.8773 75.7698 12.384C76.7911 12.8907 77.5864 13.6113 78.1558 14.546C78.7344 15.4713 79.0238 16.5387 79.0238 17.748C79.0238 18.9573 78.7344 20.0293 78.1558 20.964C77.5864 21.8893 76.7911 22.6053 75.7698 23.112C74.7484 23.6187 73.6151 23.872 72.3698 23.872ZM72.3698 21.894C73.1484 21.894 73.8371 21.7347 74.4358 21.416C75.0344 21.088 75.5038 20.6233 75.8438 20.022C76.1838 19.4113 76.3538 18.6627 76.3538 17.776C76.3538 16.8893 76.1838 16.1407 75.8438 15.53C75.5038 14.9193 75.0344 14.4547 74.4358 14.136C73.8371 13.8173 73.1484 13.658 72.3698 13.658C71.5911 13.658 70.9024 13.8173 70.3038 14.136C69.7051 14.4547 69.2311 14.9193 68.8818 15.53C68.5418 16.1407 68.3718 16.8893 68.3718 17.776C68.3718 18.6627 68.5418 19.4113 68.8818 20.022C69.2311 20.6233 69.7051 21.088 70.3038 21.416C70.9024 21.7347 71.5911 21.894 72.3698 21.894ZM86.3242 23.872C85.2842 23.872 84.3269 23.704 83.4522 23.368C82.5869 23.0227 81.8896 22.5733 81.3602 22.02L82.4789 20.314C83.0309 20.8073 83.6482 21.1893 84.3309 21.46C85.0229 21.7213 85.7569 21.852 86.5329 21.852C87.4542 21.852 88.1322 21.6873 88.5669 21.358C89.0109 21.0287 89.2329 20.5933 89.2329 20.052C89.2329 19.6373 89.0962 19.3067 88.8229 19.06C88.5589 18.8133 88.2096 18.6207 87.7749 18.482C87.3402 18.3433 86.7789 18.1973 86.0909 18.044C85.1789 17.8307 84.4309 17.6147 83.8469 17.396C83.2722 17.1773 82.7809 16.8467 82.3729 16.404C81.9742 15.9613 81.7749 15.36 81.7749 14.6C81.7749 13.4 82.2096 12.4627 83.0789 11.788C83.9576 11.1133 85.1462 10.776 86.6449 10.776C87.4956 10.776 88.3329 10.9033 89.1569 11.158C89.9809 11.4033 90.6882 11.76 91.2789 12.228L90.2729 13.934C89.7302 13.5267 89.1289 13.2187 88.4689 13.01C87.8182 12.792 87.1809 12.683 86.5569 12.683C85.6822 12.683 85.0322 12.8527 84.6069 13.192C84.1909 13.5313 83.9829 13.9787 83.9829 14.532C83.9829 14.9653 84.1196 15.3147 84.3929 15.58C84.6662 15.836 85.0249 16.0427 85.4689 16.2C85.9129 16.3573 86.5049 16.5173 87.2449 16.68C88.1289 16.8747 88.8582 17.0813 89.4329 17.3C90.0169 17.5187 90.5082 17.844 90.9069 18.276C91.3149 18.708 91.5189 19.2933 91.5189 20.022C91.5189 21.2313 91.0609 22.168 90.1449 22.832C89.2382 23.4867 87.9742 23.814 86.3242 23.872ZM98.5178 23.872C97.2631 23.872 96.1251 23.6187 95.1038 23.112C94.0918 22.596 93.2918 21.8707 92.7038 20.936C92.1251 20.0013 91.8358 18.9293 91.8358 17.72C91.8358 16.5107 92.1251 15.4433 92.7038 14.518C93.2918 13.5833 94.0918 12.8633 95.1038 12.356C96.1251 11.8487 97.2631 11.5953 98.5178 11.5953C99.5391 11.5953 100.46 11.7693 101.278 12.118C102.104 12.4573 102.8 12.9533 103.366 13.606L101.882 15.034C101.461 14.5753 100.984 14.2353 100.45 14.014C99.9244 13.7833 99.3304 13.668 98.6678 13.668C97.8891 13.668 97.1911 13.8267 96.5738 14.144C95.9658 14.4613 95.4871 14.9213 95.1378 15.524C94.7978 16.1267 94.6278 16.8707 94.6278 17.748C94.6278 18.6253 94.7978 19.3693 95.1378 19.972C95.4871 20.5747 95.9658 21.0347 96.5738 21.352C97.1911 21.6693 97.8891 21.828 98.6678 21.828C99.3304 21.828 99.9244 21.7173 100.45 21.496C100.984 21.2653 101.461 20.9207 101.882 20.462L103.366 21.89C102.8 22.5427 102.104 23.044 101.278 23.394C100.46 23.7127 99.5391 23.872 98.5178 23.872ZM110.547 23.872C109.301 23.872 108.168 23.6187 107.147 23.112C106.135 22.6053 105.335 21.8893 104.747 20.964C104.168 20.0293 103.879 18.9573 103.879 17.748C103.879 16.5387 104.168 15.4713 104.747 14.546C105.335 13.6113 106.135 12.8907 107.147 12.384C108.168 11.8773 109.301 11.624 110.547 11.624C111.792 11.624 112.925 11.8773 113.947 12.384C114.968 12.8907 115.763 13.6113 116.333 14.546C116.911 15.4713 117.201 16.5387 117.201 17.748C117.201 18.9573 116.911 20.0293 116.333 20.964C115.763 21.8893 114.968 22.6053 113.947 23.112C112.925 23.6187 111.792 23.872 110.547 23.872ZM110.547 21.894C111.325 21.894 112.014 21.7347 112.613 21.416C113.211 21.088 113.681 20.6233 114.021 20.022C114.361 19.4113 114.531 18.6627 114.531 17.776C114.531 16.8893 114.361 16.1407 114.021 15.53C113.681 14.9193 113.211 14.4547 112.613 14.136C112.014 13.8173 111.325 13.658 110.547 13.658C109.768 13.658 109.079 13.8173 108.481 14.136C107.882 14.4547 107.408 14.9193 107.059 15.53C106.719 16.1407 106.549 16.8893 106.549 17.776C106.549 18.6627 106.719 19.4113 107.059 20.022C107.408 20.6233 107.882 21.088 108.481 21.416C109.079 21.7347 109.768 21.894 110.547 21.894ZM126.001 11.848V23.648H123.555V17.748H117.655V23.648H115.209V11.848H117.655V15.944H123.555V11.848H126.001ZM134.29 23.872C133.145 23.872 132.113 23.6233 131.194 23.126C130.285 22.6287 129.573 21.9173 129.06 20.992C128.547 20.0573 128.29 18.976 128.29 17.748C128.29 16.52 128.547 15.4433 129.06 14.518C129.573 13.5833 130.285 12.872 131.194 12.384C132.113 11.8867 133.145 11.638 134.29 11.638C135.446 11.638 136.474 11.8867 137.372 12.384C138.271 12.872 138.97 13.5833 139.47 14.518C139.97 15.4433 140.22 16.52 140.22 17.748C140.22 18.976 139.97 20.0573 139.47 20.992C138.97 21.9173 138.271 22.6287 137.372 23.126C136.474 23.6233 135.446 23.872 134.29 23.872ZM134.29 21.81C135.081 21.81 135.777 21.6453 136.376 21.316C136.986 20.9773 137.456 20.4933 137.786 19.874C138.117 19.2453 138.282 18.5333 138.282 17.748C138.282 16.9627 138.117 16.2553 137.786 15.636C137.456 15.0073 136.986 14.5233 136.376 14.184C135.777 13.8447 135.081 13.675 134.29 13.675C133.498 13.675 132.797 13.8447 132.188 14.184C131.589 14.5233 131.123 15.0073 130.792 15.636C130.462 16.2553 130.297 16.9627 130.297 17.748C130.297 18.5333 130.462 19.2453 130.792 19.874C131.123 20.4933 131.589 20.9773 132.188 21.316C132.797 21.6453 133.498 21.81 134.29 21.81ZM152.002 11.848V23.648H149.808V18.834L150.06 15.888L149.374 16.882L145.458 23.2H144.474L140.558 16.882L139.858 15.888L140.124 18.834V23.648H137.93V11.848H140.292L144.936 19.482L145.01 19.608L149.64 11.848H152.002Z" fill="#111827"/>
  <path d="M164.222 15.874L161.972 23.648H159.876L158.394 17.972L156.842 23.648H154.76L152.524 15.874H154.48L155.984 21.894L157.662 15.874H159.224L160.84 21.894L162.344 15.874H164.222ZM167.937 16.91C169.025 15.7287 170.359 15.138 171.937 15.138V17.23C171.749 17.1927 171.577 17.174 171.419 17.174C170.703 17.174 170.093 17.412 169.587 17.888C169.081 18.364 168.827 19.05 168.827 19.946V23.648H166.899V15.314H168.827V16.91H167.937ZM177.979 23.902C176.937 23.902 176.007 23.676 175.189 23.224C174.381 22.7627 173.743 22.126 173.273 21.314C172.814 20.4927 172.585 19.5667 172.585 18.536C172.585 17.5147 172.821 16.5933 173.293 15.772C173.775 14.9507 174.421 14.3093 175.231 13.848C176.051 13.3773 176.977 13.142 178.009 13.142C179.041 13.142 179.967 13.3773 180.787 13.848C181.607 14.3093 182.252 14.9507 182.723 15.772C183.195 16.5933 183.431 17.5147 183.431 18.536C183.431 19.5573 183.188 20.4833 182.703 21.314C182.218 22.1353 181.561 22.7673 180.731 23.21C179.911 23.6713 178.991 23.902 177.979 23.902ZM177.979 22.198C178.561 22.198 179.099 22.0587 179.595 21.78C180.101 21.5013 180.507 21.104 180.815 20.588C181.122 20.072 181.275 19.4693 181.275 18.76C181.275 18.0507 181.122 17.4433 180.815 16.938C180.507 16.4327 180.101 16.0447 179.595 15.776C179.099 15.5073 178.561 15.373 177.979 15.373C177.397 15.373 176.859 15.5073 176.363 15.776C175.867 16.0447 175.465 16.4327 175.157 16.938C174.859 17.4433 174.711 18.0507 174.711 18.76C174.711 19.4693 174.859 20.072 175.157 20.588C175.465 21.104 175.867 21.5013 176.363 21.78C176.859 22.0587 177.397 22.198 177.979 22.198Z" fill="#2563EB"/>
</svg> 