<svg width="320" height="270" viewBox="0 0 87 22" preserveAspectRatio="xMidYMid meet"
     xmlns="http://www.w3.org/2000/svg" role="img" aria-label="Logo">
  <style>
    .mark{fill:currentColor;paint-order:stroke fill;stroke-linejoin:round;stroke-width:.6}
    @media (prefers-color-scheme: light){.mark{stroke:rgba(0,0,0,.35)}}
    @media (prefers-color-scheme: dark){.mark{stroke:rgba(255,255,255,.38)}}
    /* keep stroke thin at any size (optional): */
    /* .mark{vector-effect:non-scaling-stroke} */
  </style>
  <g class="mark">
    <path d="M33.7862 17.4846H31.3369L35.7964 4.91476H38.6291L43.0948 17.4846H40.6455L37.2622 7.49256H37.1633L33.7862 17.4846ZM33.8666 12.5561H40.5465V14.3851H33.8666V12.5561Z"/>
    <path d="M46.9033 4.91476V17.4846H44.6643V4.91476H46.9033Z"/>
    <path d="M54.0177 8.05723V9.77577H48.4016V8.05723H54.0177ZM49.8056 17.4846V7.16727C49.8056 6.53305 49.9376 6.00521 50.2015 5.58376C50.4695 5.16231 50.8282 4.84724 51.2777 4.63856C51.7271 4.42988 52.2261 4.32554 52.7745 4.32554C53.1621 4.32554 53.5064 4.35623 53.8074 4.41761C54.1084 4.47898 54.331 4.53422 54.4754 4.58332L54.03 6.30186C53.9352 6.27322 53.8156 6.24458 53.6713 6.21593C53.527 6.1832 53.3662 6.16683 53.1889 6.16683C52.7724 6.16683 52.4776 6.26708 52.3044 6.46758C52.1353 6.66398 52.0508 6.94631 52.0508 7.31457V17.4846H49.8056Z"/>
    <path d="M58.1818 17.6749C57.5798 17.6749 57.0375 17.5685 56.5551 17.3558C56.0768 17.1389 55.6974 16.8197 55.417 16.3983C55.1408 15.9768 55.0026 15.4572 55.0026 14.8393C55.0026 14.3074 55.1016 13.8675 55.2995 13.5197C55.4975 13.1719 55.7675 12.8937 56.1098 12.685C56.452 12.4763 56.8376 12.3188 57.2664 12.2124C57.6993 12.1019 58.1467 12.0221 58.6086 11.973C59.1652 11.9158 59.6167 11.8646 59.9631 11.8196C60.3095 11.7705 60.561 11.6968 60.7177 11.5986C60.8785 11.4964 60.9589 11.3388 60.9589 11.126V11.0892C60.9589 10.6269 60.8208 10.2688 60.5445 10.0151C60.2682 9.76145 59.8703 9.6346 59.3508 9.6346C58.8024 9.6346 58.3673 9.75326 58.0457 9.99058C57.7282 10.2279 57.5138 10.5082 57.4025 10.8314L55.3119 10.5368C55.4768 9.96399 55.749 9.48525 56.1283 9.10063C56.5077 8.71191 56.9716 8.42139 57.52 8.22908C58.0684 8.03268 58.6745 7.93447 59.3384 7.93447C59.7961 7.93447 60.2517 7.98767 60.7053 8.09405C61.1589 8.20044 61.5733 8.37638 61.9485 8.62189C62.3237 8.8633 62.6247 9.19269 62.8515 9.61005C63.0824 10.0274 63.1979 10.5491 63.1979 11.1751V17.4846H61.0455V16.1896H60.9713C60.8352 16.4515 60.6435 16.697 60.3961 16.9261C60.1528 17.1512 59.8456 17.3332 59.4745 17.4724C59.1075 17.6074 58.6766 17.6749 58.1818 17.6749ZM58.7632 16.0423C59.2126 16.0423 59.6023 15.9543 59.9322 15.7784C60.262 15.5983 60.5156 15.361 60.6929 15.0664C60.8744 14.7718 60.9651 14.4506 60.9651 14.1028V12.9919C60.895 13.0492 60.7754 13.1024 60.6063 13.1515C60.4414 13.2006 60.2559 13.2435 60.0497 13.2804C59.8435 13.3172 59.6394 13.3499 59.4374 13.3786C59.2353 13.4072 59.0601 13.4318 58.9116 13.4522C58.5776 13.4972 58.2787 13.5709 58.0148 13.6732C57.7509 13.7755 57.5427 13.9187 57.3901 14.1028C57.2375 14.2828 57.1612 14.5161 57.1612 14.8025C57.1612 15.2117 57.3118 15.5206 57.6128 15.7293C57.9138 15.938 58.2972 16.0423 58.7632 16.0423Z"/>
    <path d="M65.5482 17.4846V4.91476H70.3974C71.3127 4.91476 72.0735 5.05797 72.6797 5.34439C73.2899 5.62672 73.7456 6.01339 74.0466 6.5044C74.3517 6.99542 74.5043 7.55189 74.5043 8.17384C74.5043 8.68531 74.4053 9.12313 74.2074 9.4873C74.0095 9.84737 73.7435 10.1399 73.4095 10.365C73.0755 10.59 72.7023 10.7517 72.29 10.8499V10.9726C72.7394 10.9972 73.1703 11.1342 73.5827 11.3838C73.9991 11.6293 74.3393 11.9771 74.6032 12.4272C74.8671 12.8773 74.9991 13.4215 74.9991 14.0598C74.9991 14.7104 74.8403 15.2956 74.5228 15.8152C74.2053 16.3308 73.727 16.7379 73.0879 17.0366C72.4487 17.3353 71.6447 17.4846 70.6757 17.4846H65.5482ZM67.8429 15.582H70.3108C71.1437 15.582 71.7436 15.4244 72.1106 15.1094C72.4817 14.7902 72.6673 14.381 72.6673 13.8818C72.6673 13.5095 72.5745 13.174 72.389 12.8753C72.2034 12.5725 71.9395 12.3352 71.5973 12.1633C71.255 11.9874 70.8468 11.8994 70.3726 11.8994H67.8429V15.582ZM67.8429 10.2606H70.1128C70.5087 10.2606 70.8654 10.189 71.1829 10.0458C71.5004 9.89852 71.7498 9.69189 71.9313 9.42592C72.1168 9.15587 72.2096 8.83671 72.2096 8.46845C72.2096 7.98153 72.0364 7.58054 71.69 7.26547C71.3478 6.95041 70.8386 6.79287 70.1623 6.79287H67.8429V10.2606Z"/>
    <path d="M76.8963 17.4846V8.05723H79.1354V17.4846H76.8963ZM78.022 6.71922C77.6674 6.71922 77.3623 6.60261 77.1066 6.36938C76.851 6.13205 76.7232 5.84768 76.7232 5.51624C76.7232 5.18072 76.851 4.89634 77.1066 4.66311C77.3623 4.42579 77.6674 4.30713 78.022 4.30713C78.3808 4.30713 78.6859 4.42579 78.9374 4.66311C79.1931 4.89634 79.3209 5.18072 79.3209 5.51624C79.3209 5.84768 79.1931 6.13205 78.9374 6.36938C78.6859 6.60261 78.3808 6.71922 78.022 6.71922Z"/>
    <path d="M86.1817 8.05723V9.77577H80.7203V8.05723H86.1817ZM82.0686 5.79858H84.3076V14.6491C84.3076 14.9478 84.353 15.1769 84.4437 15.3365C84.5386 15.492 84.6623 15.5983 84.8148 15.6556C84.9674 15.7129 85.1364 15.7416 85.322 15.7416C85.4622 15.7416 85.59 15.7313 85.7055 15.7109C85.8251 15.6904 85.9158 15.672 85.9776 15.6556L86.3549 17.3926C86.2353 17.4335 86.0642 17.4785 85.8415 17.5276C85.623 17.5767 85.355 17.6053 85.0375 17.6135C84.4767 17.6299 83.9716 17.546 83.5221 17.3619C83.0727 17.1737 82.716 16.8832 82.4521 16.4903C82.1923 16.0975 82.0645 15.6065 82.0686 15.0173V5.79858Z"/>
    <path d="M19.718 19.4689L0 19.4739L10.7096 1.2089C11.142 0.474692 11.9299 0 12.7947 0H12.8081C13.1086 0 13.4058 0.00821266 13.7012 0.0295656L3.43408 17.5373H18.5861L19.718 19.4689Z"/>
    <path d="M24.1417 21.9951L2.70249 22.0001C1.81434 22.0001 0.999643 21.5237 0.558906 20.7632C0.420341 20.5267 0.291792 20.2869 0.169922 20.0422L20.7176 20.0372L13.1416 7.12693L14.2752 5.19531L24.1417 21.9951Z"/>
    <path d="M24.992 20.8732C24.8518 21.1065 24.7065 21.3381 24.5529 21.5631L14.2741 4.05864L6.69974 16.9689H4.43262L14.2874 0.16748L25.0104 18.4259C25.4561 19.1847 25.4428 20.116 24.992 20.8732Z"/>
  </g>
</svg>

