<svg width="146" height="40" viewBox="0 0 146 40" fill="none" xmlns="http://www.w3.org/2000/svg">
<path d="M13.4 5.8C16.36 5.8 18.9467 6.4 21.16 7.6C23.4 8.77333 25.12 10.4267 26.32 12.56C27.52 14.6933 28.12 17.1333 28.12 19.88C28.12 22.6 27.5067 25.0267 26.28 27.16C25.08 29.2933 23.36 30.9733 21.12 32.2C18.9067 33.4 16.3333 34 13.4 34H2.24V5.8H13.4ZM12.8 27.08C15.0933 27.08 16.8933 26.4533 18.2 25.2C19.5067 23.9467 20.16 22.1733 20.16 19.88C20.16 17.56 19.5067 15.7733 18.2 14.52C16.8933 13.24 15.0933 12.6 12.8 12.6H10.08V27.08H12.8ZM40.6941 34.28C37.4141 34.28 34.7207 33.5067 32.6141 31.96C30.5074 30.3867 29.3741 28.1467 29.2141 25.24H37.5741C37.6541 26.2267 37.9474 26.9467 38.4541 27.4C38.9607 27.8533 39.6141 28.08 40.4141 28.08C41.1341 28.08 41.7207 27.9067 42.1741 27.56C42.6541 27.1867 42.8941 26.68 42.8941 26.04C42.8941 25.2133 42.5074 24.5733 41.7341 24.12C40.9607 23.6667 39.7074 23.16 37.9741 22.6C36.1341 21.9867 34.6407 21.4 33.4941 20.84C32.3741 20.2533 31.3874 19.4133 30.5341 18.32C29.7074 17.2 29.2941 15.7467 29.2941 13.96C29.2941 12.1467 29.7474 10.6 30.6541 9.32C31.5607 8.01333 32.8141 7.02667 34.4141 6.36C36.0141 5.69333 37.8274 5.36 39.8541 5.36C43.1341 5.36 45.7474 6.13333 47.6941 7.68C49.6674 9.2 50.7207 11.3467 50.8541 14.12H42.3341C42.3074 13.2667 42.0407 12.6267 41.5341 12.2C41.0541 11.7733 40.4274 11.56 39.6541 11.56C39.0674 11.56 38.5874 11.7333 38.2141 12.08C37.8407 12.4267 37.6541 12.92 37.6541 13.56C37.6541 14.0933 37.8541 14.56 38.2541 14.96C38.6807 15.3333 39.2007 15.6667 39.8141 15.96C40.4274 16.2267 41.3341 16.5733 42.5341 17C44.3207 17.6133 45.7874 18.2267 46.9341 18.84C48.1074 19.4267 49.1074 20.2667 49.9341 21.36C50.7874 22.4267 51.2141 23.7867 51.2141 25.44C51.2141 27.12 50.7874 28.6267 49.9341 29.96C49.1074 31.2933 47.8941 32.3467 46.2941 33.12C44.7207 33.8933 42.8541 34.28 40.6941 34.28ZM72.3788 5.8V12.04H61.0987V17H69.4187V22.96H61.0987V34H53.2587V5.8H72.3788Z" fill="#3956FE"/>
<path d="M85.02 5.05C85.76 5.05 86.4067 5.19333 86.96 5.48C87.52 5.76 87.95 6.16667 88.25 6.7C88.5567 7.22667 88.71 7.84333 88.71 8.55C88.71 9.25667 88.5567 9.87 88.25 10.39C87.95 10.91 87.52 11.31 86.96 11.59C86.4067 11.8633 85.76 12 85.02 12H82.75V5.05H85.02ZM85.02 11.07C85.8333 11.07 86.4567 10.85 86.89 10.41C87.3233 9.97 87.54 9.35 87.54 8.55C87.54 7.74333 87.3233 7.11333 86.89 6.66C86.4567 6.20667 85.8333 5.98 85.02 5.98H83.89V11.07H85.02ZM95.6898 9.11C95.6898 9.31667 95.6765 9.50333 95.6498 9.67H91.4398C91.4732 10.11 91.6365 10.4633 91.9298 10.73C92.2232 10.9967 92.5832 11.13 93.0098 11.13C93.6232 11.13 94.0565 10.8733 94.3098 10.36H95.5398C95.3732 10.8667 95.0698 11.2833 94.6298 11.61C94.1965 11.93 93.6565 12.09 93.0098 12.09C92.4832 12.09 92.0098 11.9733 91.5898 11.74C91.1765 11.5 90.8498 11.1667 90.6098 10.74C90.3765 10.3067 90.2598 9.80667 90.2598 9.24C90.2598 8.67333 90.3732 8.17667 90.5998 7.75C90.8332 7.31667 91.1565 6.98333 91.5698 6.75C91.9898 6.51667 92.4698 6.4 93.0098 6.4C93.5298 6.4 93.9932 6.51333 94.3998 6.74C94.8065 6.96667 95.1232 7.28667 95.3498 7.7C95.5765 8.10667 95.6898 8.57667 95.6898 9.11ZM94.4998 8.75C94.4932 8.33 94.3432 7.99333 94.0498 7.74C93.7565 7.48667 93.3932 7.36 92.9598 7.36C92.5665 7.36 92.2298 7.48667 91.9498 7.74C91.6698 7.98667 91.5032 8.32333 91.4498 8.75H94.4998ZM99.9217 7.42H98.9017V12H97.7517V7.42H97.1017V6.49H97.7517V6.1C97.7517 5.46667 97.9184 5.00667 98.2517 4.72C98.5917 4.42667 99.1217 4.28 99.8417 4.28V5.23C99.4951 5.23 99.2517 5.29667 99.1117 5.43C98.9717 5.55667 98.9017 5.78 98.9017 6.1V6.49H99.9217V7.42ZM102.312 5.76C102.105 5.76 101.932 5.69 101.792 5.55C101.652 5.41 101.582 5.23667 101.582 5.03C101.582 4.82333 101.652 4.65 101.792 4.51C101.932 4.37 102.105 4.3 102.312 4.3C102.512 4.3 102.682 4.37 102.822 4.51C102.962 4.65 103.032 4.82333 103.032 5.03C103.032 5.23667 102.962 5.41 102.822 5.55C102.682 5.69 102.512 5.76 102.312 5.76ZM102.872 6.49V12H101.732V6.49H102.872ZM107.949 6.4C108.382 6.4 108.769 6.49 109.109 6.67C109.455 6.85 109.725 7.11667 109.919 7.47C110.112 7.82333 110.209 8.25 110.209 8.75V12H109.079V8.92C109.079 8.42667 108.955 8.05 108.709 7.79C108.462 7.52333 108.125 7.39 107.699 7.39C107.272 7.39 106.932 7.52333 106.679 7.79C106.432 8.05 106.309 8.42667 106.309 8.92V12H105.169V6.49H106.309V7.12C106.495 6.89333 106.732 6.71667 107.019 6.59C107.312 6.46333 107.622 6.4 107.949 6.4ZM113.043 5.76C112.836 5.76 112.663 5.69 112.523 5.55C112.383 5.41 112.313 5.23667 112.313 5.03C112.313 4.82333 112.383 4.65 112.523 4.51C112.663 4.37 112.836 4.3 113.043 4.3C113.243 4.3 113.413 4.37 113.553 4.51C113.693 4.65 113.763 4.82333 113.763 5.03C113.763 5.23667 113.693 5.41 113.553 5.55C113.413 5.69 113.243 5.76 113.043 5.76ZM113.603 6.49V12H112.463V6.49H113.603ZM118.68 6.4C119.113 6.4 119.5 6.49 119.84 6.67C120.186 6.85 120.456 7.11667 120.65 7.47C120.843 7.82333 120.94 8.25 120.94 8.75V12H119.81V8.92C119.81 8.42667 119.686 8.05 119.44 7.79C119.193 7.52333 118.856 7.39 118.43 7.39C118.003 7.39 117.663 7.52333 117.41 7.79C117.163 8.05 117.04 8.42667 117.04 8.92V12H115.9V6.49H117.04V7.12C117.226 6.89333 117.463 6.71667 117.75 6.59C118.043 6.46333 118.353 6.4 118.68 6.4ZM125.414 6.4C125.84 6.4 126.217 6.48667 126.544 6.66C126.877 6.82667 127.137 7.03667 127.324 7.29V6.49H128.474V12.09C128.474 12.5967 128.367 13.0467 128.154 13.44C127.94 13.84 127.63 14.1533 127.224 14.38C126.824 14.6067 126.344 14.72 125.784 14.72C125.037 14.72 124.417 14.5433 123.924 14.19C123.43 13.8433 123.15 13.37 123.084 12.77H124.214C124.3 13.0567 124.484 13.2867 124.764 13.46C125.05 13.64 125.39 13.73 125.784 13.73C126.244 13.73 126.614 13.59 126.894 13.31C127.18 13.03 127.324 12.6233 127.324 12.09V11.17C127.13 11.43 126.867 11.65 126.534 11.83C126.207 12.0033 125.834 12.09 125.414 12.09C124.934 12.09 124.494 11.97 124.094 11.73C123.7 11.4833 123.387 11.1433 123.154 10.71C122.927 10.27 122.814 9.77333 122.814 9.22C122.814 8.66667 122.927 8.17667 123.154 7.75C123.387 7.32333 123.7 6.99333 124.094 6.76C124.494 6.52 124.934 6.4 125.414 6.4ZM127.324 9.24C127.324 8.86 127.244 8.53 127.084 8.25C126.93 7.97 126.727 7.75667 126.474 7.61C126.22 7.46333 125.947 7.39 125.654 7.39C125.36 7.39 125.087 7.46333 124.834 7.61C124.58 7.75 124.374 7.96 124.214 8.24C124.06 8.51333 123.984 8.84 123.984 9.22C123.984 9.6 124.06 9.93333 124.214 10.22C124.374 10.5067 124.58 10.7267 124.834 10.88C125.094 11.0267 125.367 11.1 125.654 11.1C125.947 11.1 126.22 11.0267 126.474 10.88C126.727 10.7333 126.93 10.52 127.084 10.24C127.244 9.95333 127.324 9.62 127.324 9.24ZM85.04 24.07C84.5733 24.07 84.1533 23.99 83.78 23.83C83.4067 23.6633 83.1133 23.43 82.9 23.13C82.6867 22.83 82.58 22.48 82.58 22.08H83.8C83.8267 22.38 83.9433 22.6267 84.15 22.82C84.3633 23.0133 84.66 23.11 85.04 23.11C85.4333 23.11 85.74 23.0167 85.96 22.83C86.18 22.6367 86.29 22.39 86.29 22.09C86.29 21.8567 86.22 21.6667 86.08 21.52C85.9467 21.3733 85.7767 21.26 85.57 21.18C85.37 21.1 85.09 21.0133 84.73 20.92C84.2767 20.8 83.9067 20.68 83.62 20.56C83.34 20.4333 83.1 20.24 82.9 19.98C82.7 19.72 82.6 19.3733 82.6 18.94C82.6 18.54 82.7 18.19 82.9 17.89C83.1 17.59 83.38 17.36 83.74 17.2C84.1 17.04 84.5167 16.96 84.99 16.96C85.6633 16.96 86.2133 17.13 86.64 17.47C87.0733 17.8033 87.3133 18.2633 87.36 18.85H86.1C86.08 18.5967 85.96 18.38 85.74 18.2C85.52 18.02 85.23 17.93 84.87 17.93C84.5433 17.93 84.2767 18.0133 84.07 18.18C83.8633 18.3467 83.76 18.5867 83.76 18.9C83.76 19.1133 83.8233 19.29 83.95 19.43C84.0833 19.5633 84.25 19.67 84.45 19.75C84.65 19.83 84.9233 19.9167 85.27 20.01C85.73 20.1367 86.1033 20.2633 86.39 20.39C86.6833 20.5167 86.93 20.7133 87.13 20.98C87.3367 21.24 87.44 21.59 87.44 22.03C87.44 22.3833 87.3433 22.7167 87.15 23.03C86.9633 23.3433 86.6867 23.5967 86.32 23.79C85.96 23.9767 85.5333 24.07 85.04 24.07ZM94.5752 18.49V24H93.4352V23.35C93.2552 23.5767 93.0185 23.7567 92.7252 23.89C92.4385 24.0167 92.1318 24.08 91.8052 24.08C91.3718 24.08 90.9818 23.99 90.6352 23.81C90.2952 23.63 90.0252 23.3633 89.8252 23.01C89.6318 22.6567 89.5352 22.23 89.5352 21.73V18.49H90.6652V21.56C90.6652 22.0533 90.7885 22.4333 91.0352 22.7C91.2818 22.96 91.6185 23.09 92.0452 23.09C92.4718 23.09 92.8085 22.96 93.0552 22.7C93.3085 22.4333 93.4352 22.0533 93.4352 21.56V18.49H94.5752ZM96.4993 21.24C96.4993 20.6733 96.6126 20.1767 96.8393 19.75C97.0726 19.3167 97.3926 18.9833 97.7993 18.75C98.206 18.5167 98.6726 18.4 99.1993 18.4C99.866 18.4 100.416 18.56 100.849 18.88C101.289 19.1933 101.586 19.6433 101.739 20.23H100.509C100.409 19.9567 100.249 19.7433 100.029 19.59C99.8093 19.4367 99.5326 19.36 99.1993 19.36C98.7326 19.36 98.3593 19.5267 98.0793 19.86C97.806 20.1867 97.6693 20.6467 97.6693 21.24C97.6693 21.8333 97.806 22.2967 98.0793 22.63C98.3593 22.9633 98.7326 23.13 99.1993 23.13C99.8593 23.13 100.296 22.84 100.509 22.26H101.739C101.579 22.82 101.279 23.2667 100.839 23.6C100.399 23.9267 99.8526 24.09 99.1993 24.09C98.6726 24.09 98.206 23.9733 97.7993 23.74C97.3926 23.5 97.0726 23.1667 96.8393 22.74C96.6126 22.3067 96.4993 21.8067 96.4993 21.24ZM103.295 21.24C103.295 20.6733 103.409 20.1767 103.635 19.75C103.869 19.3167 104.189 18.9833 104.595 18.75C105.002 18.5167 105.469 18.4 105.995 18.4C106.662 18.4 107.212 18.56 107.645 18.88C108.085 19.1933 108.382 19.6433 108.535 20.23H107.305C107.205 19.9567 107.045 19.7433 106.825 19.59C106.605 19.4367 106.329 19.36 105.995 19.36C105.529 19.36 105.155 19.5267 104.875 19.86C104.602 20.1867 104.465 20.6467 104.465 21.24C104.465 21.8333 104.602 22.2967 104.875 22.63C105.155 22.9633 105.529 23.13 105.995 23.13C106.655 23.13 107.092 22.84 107.305 22.26H108.535C108.375 22.82 108.075 23.2667 107.635 23.6C107.195 23.9267 106.649 24.09 105.995 24.09C105.469 24.09 105.002 23.9733 104.595 23.74C104.189 23.5 103.869 23.1667 103.635 22.74C103.409 22.3067 103.295 21.8067 103.295 21.24ZM115.521 21.11C115.521 21.3167 115.508 21.5033 115.481 21.67H111.271C111.305 22.11 111.468 22.4633 111.761 22.73C112.055 22.9967 112.415 23.13 112.841 23.13C113.455 23.13 113.888 22.8733 114.141 22.36H115.371C115.205 22.8667 114.901 23.2833 114.461 23.61C114.028 23.93 113.488 24.09 112.841 24.09C112.315 24.09 111.841 23.9733 111.421 23.74C111.008 23.5 110.681 23.1667 110.441 22.74C110.208 22.3067 110.091 21.8067 110.091 21.24C110.091 20.6733 110.205 20.1767 110.431 19.75C110.665 19.3167 110.988 18.9833 111.401 18.75C111.821 18.5167 112.301 18.4 112.841 18.4C113.361 18.4 113.825 18.5133 114.231 18.74C114.638 18.9667 114.955 19.2867 115.181 19.7C115.408 20.1067 115.521 20.5767 115.521 21.11ZM114.331 20.75C114.325 20.33 114.175 19.9933 113.881 19.74C113.588 19.4867 113.225 19.36 112.791 19.36C112.398 19.36 112.061 19.4867 111.781 19.74C111.501 19.9867 111.335 20.3233 111.281 20.75H114.331ZM119.443 24.09C119.01 24.09 118.62 24.0133 118.273 23.86C117.933 23.7 117.663 23.4867 117.463 23.22C117.263 22.9467 117.157 22.6433 117.143 22.31H118.323C118.343 22.5433 118.453 22.74 118.653 22.9C118.86 23.0533 119.117 23.13 119.423 23.13C119.743 23.13 119.99 23.07 120.163 22.95C120.343 22.8233 120.433 22.6633 120.433 22.47C120.433 22.2633 120.333 22.11 120.133 22.01C119.94 21.91 119.63 21.8 119.203 21.68C118.79 21.5667 118.453 21.4567 118.193 21.35C117.933 21.2433 117.707 21.08 117.513 20.86C117.327 20.64 117.233 20.35 117.233 19.99C117.233 19.6967 117.32 19.43 117.493 19.19C117.667 18.9433 117.913 18.75 118.233 18.61C118.56 18.47 118.933 18.4 119.353 18.4C119.98 18.4 120.483 18.56 120.863 18.88C121.25 19.1933 121.457 19.6233 121.483 20.17H120.343C120.323 19.9233 120.223 19.7267 120.043 19.58C119.863 19.4333 119.62 19.36 119.313 19.36C119.013 19.36 118.783 19.4167 118.623 19.53C118.463 19.6433 118.383 19.7933 118.383 19.98C118.383 20.1267 118.437 20.25 118.543 20.35C118.65 20.45 118.78 20.53 118.933 20.59C119.087 20.6433 119.313 20.7133 119.613 20.8C120.013 20.9067 120.34 21.0167 120.593 21.13C120.853 21.2367 121.077 21.3967 121.263 21.61C121.45 21.8233 121.547 22.1067 121.553 22.46C121.553 22.7733 121.467 23.0533 121.293 23.3C121.12 23.5467 120.873 23.74 120.553 23.88C120.24 24.02 119.87 24.09 119.443 24.09ZM125.585 24.09C125.152 24.09 124.762 24.0133 124.415 23.86C124.075 23.7 123.805 23.4867 123.605 23.22C123.405 22.9467 123.298 22.6433 123.285 22.31H124.465C124.485 22.5433 124.595 22.74 124.795 22.9C125.002 23.0533 125.258 23.13 125.565 23.13C125.885 23.13 126.132 23.07 126.305 22.95C126.485 22.8233 126.575 22.6633 126.575 22.47C126.575 22.2633 126.475 22.11 126.275 22.01C126.082 21.91 125.772 21.8 125.345 21.68C124.932 21.5667 124.595 21.4567 124.335 21.35C124.075 21.2433 123.848 21.08 123.655 20.86C123.468 20.64 123.375 20.35 123.375 19.99C123.375 19.6967 123.462 19.43 123.635 19.19C123.808 18.9433 124.055 18.75 124.375 18.61C124.702 18.47 125.075 18.4 125.495 18.4C126.122 18.4 126.625 18.56 127.005 18.88C127.392 19.1933 127.598 19.6233 127.625 20.17H126.485C126.465 19.9233 126.365 19.7267 126.185 19.58C126.005 19.4333 125.762 19.36 125.455 19.36C125.155 19.36 124.925 19.4167 124.765 19.53C124.605 19.6433 124.525 19.7933 124.525 19.98C124.525 20.1267 124.578 20.25 124.685 20.35C124.792 20.45 124.922 20.53 125.075 20.59C125.228 20.6433 125.455 20.7133 125.755 20.8C126.155 20.9067 126.482 21.0167 126.735 21.13C126.995 21.2367 127.218 21.3967 127.405 21.61C127.592 21.8233 127.688 22.1067 127.695 22.46C127.695 22.7733 127.608 23.0533 127.435 23.3C127.262 23.5467 127.015 23.74 126.695 23.88C126.382 24.02 126.012 24.09 125.585 24.09ZM132.037 19.42H131.017V24H129.867V19.42H129.217V18.49H129.867V18.1C129.867 17.4667 130.034 17.0067 130.367 16.72C130.707 16.4267 131.237 16.28 131.957 16.28V17.23C131.61 17.23 131.367 17.2967 131.227 17.43C131.087 17.5567 131.017 17.78 131.017 18.1V18.49H132.037V19.42ZM138.837 18.49V24H137.697V23.35C137.517 23.5767 137.281 23.7567 136.987 23.89C136.701 24.0167 136.394 24.08 136.067 24.08C135.634 24.08 135.244 23.99 134.897 23.81C134.557 23.63 134.287 23.3633 134.087 23.01C133.894 22.6567 133.797 22.23 133.797 21.73V18.49H134.927V21.56C134.927 22.0533 135.051 22.4333 135.297 22.7C135.544 22.96 135.881 23.09 136.307 23.09C136.734 23.09 137.071 22.96 137.317 22.7C137.571 22.4333 137.697 22.0533 137.697 21.56V18.49H138.837ZM142.281 16.6V24H141.141V16.6H142.281ZM86.84 29.05V29.98H83.89V32.03H86.19V32.96H83.89V36H82.75V29.05H86.84ZM93.6865 30.49V36H92.5465V35.35C92.3665 35.5767 92.1298 35.7567 91.8365 35.89C91.5498 36.0167 91.2432 36.08 90.9165 36.08C90.4832 36.08 90.0932 35.99 89.7465 35.81C89.4065 35.63 89.1365 35.3633 88.9365 35.01C88.7432 34.6567 88.6465 34.23 88.6465 33.73V30.49H89.7765V33.56C89.7765 34.0533 89.8998 34.4333 90.1465 34.7C90.3932 34.96 90.7298 35.09 91.1565 35.09C91.5832 35.09 91.9198 34.96 92.1665 34.7C92.4198 34.4333 92.5465 34.0533 92.5465 33.56V30.49H93.6865ZM97.3206 31.42V34.47C97.3206 34.6767 97.3673 34.8267 97.4606 34.92C97.5606 35.0067 97.7273 35.05 97.9606 35.05H98.6606V36H97.7606C97.2473 36 96.854 35.88 96.5806 35.64C96.3073 35.4 96.1706 35.01 96.1706 34.47V31.42H95.5206V30.49H96.1706V29.12H97.3206V30.49H98.6606V31.42H97.3206ZM105.501 30.49V36H104.361V35.35C104.181 35.5767 103.945 35.7567 103.651 35.89C103.365 36.0167 103.058 36.08 102.731 36.08C102.298 36.08 101.908 35.99 101.561 35.81C101.221 35.63 100.951 35.3633 100.751 35.01C100.558 34.6567 100.461 34.23 100.461 33.73V30.49H101.591V33.56C101.591 34.0533 101.715 34.4333 101.961 34.7C102.208 34.96 102.545 35.09 102.971 35.09C103.398 35.09 103.735 34.96 103.981 34.7C104.235 34.4333 104.361 34.0533 104.361 33.56V30.49H105.501ZM108.945 31.29C109.112 31.01 109.332 30.7933 109.605 30.64C109.885 30.48 110.215 30.4 110.595 30.4V31.58H110.305C109.859 31.58 109.519 31.6933 109.285 31.92C109.059 32.1467 108.945 32.54 108.945 33.1V36H107.805V30.49H108.945V31.29ZM117.493 33.11C117.493 33.3167 117.48 33.5033 117.453 33.67H113.243C113.277 34.11 113.44 34.4633 113.733 34.73C114.027 34.9967 114.387 35.13 114.813 35.13C115.427 35.13 115.86 34.8733 116.113 34.36H117.343C117.177 34.8667 116.873 35.2833 116.433 35.61C116 35.93 115.46 36.09 114.813 36.09C114.287 36.09 113.813 35.9733 113.393 35.74C112.98 35.5 112.653 35.1667 112.413 34.74C112.18 34.3067 112.063 33.8067 112.063 33.24C112.063 32.6733 112.177 32.1767 112.403 31.75C112.637 31.3167 112.96 30.9833 113.373 30.75C113.793 30.5167 114.273 30.4 114.813 30.4C115.333 30.4 115.797 30.5133 116.203 30.74C116.61 30.9667 116.927 31.2867 117.153 31.7C117.38 32.1067 117.493 32.5767 117.493 33.11ZM116.303 32.75C116.297 32.33 116.147 31.9933 115.853 31.74C115.56 31.4867 115.197 31.36 114.763 31.36C114.37 31.36 114.033 31.4867 113.753 31.74C113.473 31.9867 113.307 32.3233 113.253 32.75H116.303Z" fill="#3B4B66"/>
</svg>
