<?xml version="1.0" standalone="no"?>
<!DOCTYPE svg PUBLIC "-//W3C//DTD SVG 20010904//EN"
 "http://www.w3.org/TR/2001/REC-SVG-20010904/DTD/svg10.dtd">
<svg version="1.0" xmlns="http://www.w3.org/2000/svg"
 width="912.000000pt" height="408.000000pt" viewBox="0 0 912.000000 408.000000"
 preserveAspectRatio="xMidYMid meet">
<metadata>
Created by potrace 1.16, written by Peter Selinger 2001-2019
</metadata>
<g transform="translate(0.000000,408.000000) scale(0.100000,-0.100000)"
fill="#000000" stroke="none">
<path d="M3229 4065 c-8 -9 -33 -18 -55 -21 -56 -9 -227 -67 -349 -119 -58
-25 -353 -173 -400 -201 -22 -13 -53 -31 -70 -39 -49 -26 -107 -62 -114 -71
-8 -11 -57 -40 -93 -55 -35 -14 -39 -44 -5 -33 12 3 26 13 30 20 4 8 16 14 26
14 10 0 30 9 44 20 14 11 32 20 40 20 8 0 26 9 40 20 14 11 32 20 40 20 8 0
20 7 27 15 7 8 17 15 23 15 6 0 47 18 92 39 44 22 109 51 145 66 36 15 84 35
108 46 23 10 48 19 55 19 6 0 34 8 62 19 50 19 131 44 255 78 46 13 100 18
182 18 115 0 117 0 155 -31 21 -17 44 -46 50 -65 36 -98 -38 -316 -176 -524
-117 -175 -297 -411 -421 -551 -25 -28 -70 -80 -100 -115 -121 -142 -409 -430
-585 -586 -80 -70 -317 -261 -453 -365 -53 -40 -320 -221 -361 -244 -14 -8
-44 -26 -66 -39 -22 -14 -53 -32 -70 -40 -16 -8 -43 -24 -60 -35 -16 -11 -48
-29 -70 -40 -22 -11 -85 -43 -140 -71 -151 -76 -213 -103 -335 -148 -147 -53
-193 -63 -290 -64 -106 -1 -123 5 -166 64 -31 42 -32 111 -4 199 11 34 20 67
20 72 0 52 323 597 385 648 8 7 15 16 15 21 0 5 61 86 136 179 75 93 134 175
132 182 -7 19 -226 -209 -352 -367 -202 -251 -306 -405 -386 -569 -58 -119
-87 -204 -101 -297 -34 -233 87 -330 372 -299 108 12 271 50 326 75 17 8 36
15 42 15 23 0 330 148 409 198 28 18 59 35 68 39 16 6 199 124 219 140 6 5 42
31 80 58 157 109 391 289 553 425 326 274 793 723 957 920 44 52 82 97 86 100
15 12 201 264 244 331 26 41 56 87 67 103 29 40 148 278 148 294 0 7 7 27 16
43 23 45 37 194 25 268 -11 70 -52 131 -105 158 -17 8 -35 22 -39 29 -12 21
-287 20 -308 -1z"/>
<path d="M4132 3268 c-7 -7 -12 -35 -12 -64 0 -30 -5 -56 -13 -62 -7 -6 -53
-16 -102 -22 -49 -6 -109 -15 -134 -21 -26 -5 -86 -13 -134 -18 -49 -5 -93
-13 -99 -19 -17 -17 35 -42 109 -52 123 -17 297 -43 333 -49 32 -6 35 -10 38
-46 4 -70 13 -105 25 -105 11 0 83 51 255 180 63 48 58 65 -43 141 -47 35
-110 83 -141 107 -62 46 -65 47 -82 30z"/>
<path d="M1260 3220 c-13 -8 -15 -112 -15 -832 0 -816 0 -823 20 -826 21 -3
266 173 318 229 27 29 27 32 27 157 0 87 4 133 13 145 10 14 38 17 184 19
l173 3 171 171 c101 101 169 176 165 183 -5 8 -107 11 -345 11 -249 0 -340 3
-349 12 -8 8 -12 61 -12 174 0 145 2 163 18 169 9 3 247 6 528 5 308 0 521 3
537 9 39 15 277 317 277 352 0 9 -10 19 -22 23 -39 10 -1672 7 -1688 -4z"/>
<path d="M3145 2154 c-73 -12 -204 -48 -245 -69 -38 -19 -140 -113 -140 -129
0 -3 -6 -30 -14 -60 -13 -47 -13 -64 -1 -121 21 -100 72 -152 190 -192 87 -30
221 -52 375 -63 194 -14 270 -39 270 -87 0 -16 -39 -52 -70 -65 -14 -5 -111
-10 -216 -10 -170 0 -197 2 -237 20 -25 11 -53 33 -63 49 -10 15 -23 31 -29
35 -5 4 -60 8 -122 8 -103 0 -113 -2 -123 -21 -16 -30 -3 -92 29 -136 74 -101
131 -132 341 -184 19 -5 114 -9 210 -9 155 0 185 3 264 25 116 32 172 59 224
109 57 54 82 112 82 191 0 197 -162 286 -579 315 -199 15 -261 35 -261 85 0
59 75 78 291 73 146 -3 169 -6 206 -25 23 -13 50 -36 60 -53 9 -16 23 -30 30
-31 7 0 54 0 103 0 50 0 99 0 110 0 64 2 36 125 -47 208 -96 94 -224 134 -453
138 -85 2 -168 1 -185 -1z"/>
<path d="M6610 2154 c-71 -13 -182 -47 -229 -70 -108 -51 -201 -179 -201 -275
0 -39 27 -49 134 -49 118 0 146 7 158 41 21 61 122 99 261 99 114 0 186 -21
225 -66 29 -34 43 -74 25 -74 -5 0 -44 -6 -88 -14 -44 -8 -141 -19 -215 -26
-176 -16 -316 -43 -365 -71 -99 -56 -145 -130 -145 -233 1 -134 72 -217 233
-272 97 -33 308 -35 413 -3 79 23 168 64 185 85 19 23 48 16 92 -20 54 -43 97
-55 228 -63 150 -8 149 -10 149 128 0 108 0 110 -26 119 -14 6 -45 10 -69 10
-34 0 -48 5 -63 25 -17 22 -20 46 -24 217 -5 191 -5 194 -36 259 -21 46 -49
82 -88 118 -105 96 -204 130 -399 136 -71 2 -141 2 -155 -1z m378 -606 c25
-25 13 -61 -34 -105 -26 -24 -52 -43 -59 -43 -7 0 -32 -9 -57 -20 -51 -22
-227 -36 -297 -23 -57 11 -90 50 -75 90 13 39 84 62 224 74 63 5 149 16 190
23 96 18 94 18 108 4z"/>
<path d="M8155 2156 c-5 -2 -39 -12 -75 -22 -36 -10 -78 -26 -95 -36 -41 -25
-70 -23 -89 7 -16 24 -20 25 -131 25 -103 0 -115 -2 -125 -19 -15 -30 -14
-1283 2 -1299 17 -17 249 -17 266 0 8 8 12 66 12 194 0 195 4 209 49 178 12
-9 53 -26 91 -40 59 -20 88 -24 192 -24 102 0 136 4 198 24 102 33 165 70 231
136 78 77 116 158 131 275 36 286 -90 490 -355 576 -57 18 -273 36 -302 25z
m248 -301 c26 -15 62 -48 80 -74 29 -42 32 -53 35 -136 3 -86 2 -92 -27 -137
-46 -73 -96 -103 -192 -118 -142 -22 -274 7 -351 78 l-28 26 0 146 0 146 28
26 c67 63 126 78 287 74 111 -3 125 -5 168 -31z"/>
<path d="M4014 2115 c-4 -8 1 -30 10 -49 9 -19 16 -37 16 -41 0 -4 8 -26 19
-49 50 -110 61 -137 61 -148 0 -6 8 -29 19 -52 18 -39 32 -73 82 -198 21 -53
38 -92 78 -179 12 -25 21 -53 21 -60 0 -8 9 -31 20 -52 11 -20 20 -43 20 -50
0 -8 14 -33 30 -55 l30 -42 160 0 c174 0 207 8 217 49 3 14 12 37 19 51 23 45
64 142 64 153 0 5 9 28 19 51 10 23 31 70 46 106 15 36 33 79 41 97 8 17 14
37 14 45 0 8 6 22 13 32 13 17 15 16 40 -14 15 -17 27 -39 27 -48 0 -9 9 -30
20 -47 11 -16 20 -37 20 -46 0 -16 38 -110 66 -161 8 -14 14 -32 14 -38 0 -7
8 -31 19 -54 10 -23 31 -69 46 -103 18 -40 35 -63 49 -67 12 -3 91 -6 177 -6
170 0 177 2 202 60 8 19 27 61 41 92 14 31 26 61 26 67 0 6 9 30 19 53 11 24
31 72 46 108 15 36 33 79 40 95 8 17 26 61 41 100 26 69 44 113 70 170 42 96
75 192 72 214 l-3 26 -137 3 -138 3 -25 -53 c-13 -29 -36 -84 -50 -123 -14
-38 -30 -79 -35 -90 -5 -11 -16 -38 -24 -60 -8 -22 -24 -65 -36 -95 -12 -30
-30 -77 -40 -105 -53 -146 -55 -150 -79 -150 -19 0 -27 9 -38 40 -7 22 -17 49
-22 60 -6 11 -24 54 -41 95 -17 41 -38 89 -46 107 -8 17 -14 36 -14 43 0 7 -6
24 -14 38 -8 15 -27 56 -41 92 -15 36 -35 84 -46 108 -10 23 -19 49 -19 57 0
27 -39 35 -173 35 l-135 0 -21 -35 c-11 -20 -24 -48 -27 -63 -4 -15 -15 -43
-24 -62 -31 -61 -60 -130 -60 -142 0 -6 -8 -29 -19 -52 -10 -23 -29 -66 -41
-96 -12 -30 -31 -74 -41 -98 -10 -23 -19 -48 -19 -54 0 -19 -44 -78 -57 -78
-7 0 -15 12 -18 28 -4 15 -15 46 -26 70 -10 23 -19 48 -19 55 0 7 -9 29 -20
50 -11 20 -20 44 -20 52 0 8 -8 34 -19 57 -10 24 -24 59 -31 78 -7 19 -18 53
-26 75 -8 22 -18 47 -23 56 -5 9 -14 34 -20 55 -6 22 -20 54 -31 72 l-20 32
-145 0 c-121 0 -147 -3 -151 -15z"/>
<path d="M1461 1043 c-5 -11 -15 -74 -21 -142 -6 -68 -15 -133 -20 -145 -4
-13 -13 -74 -20 -137 -6 -65 -18 -129 -28 -149 -17 -35 -18 -35 -92 -40 -72
-5 -75 -6 -78 -32 -2 -19 10 -44 45 -90 26 -35 50 -65 53 -68 3 -3 25 -32 49
-65 77 -105 129 -165 142 -165 4 0 15 13 26 30 10 16 71 99 136 184 145 190
146 200 40 204 -40 2 -75 8 -81 15 -14 17 -63 291 -84 467 -13 117 -21 144
-40 148 -9 2 -21 -5 -27 -15z"/>
</g>
</svg>
