<svg width="152" height="22" viewBox="0 0 152 22" fill="none" xmlns="http://www.w3.org/2000/svg">
<path d="M93.7817 0.0339013L89.7704 14.6365L87.7647 21.9996H95.0574L96.6537 16.0433H102.63L101.006 21.9996L108.135 21.9653L110.079 14.6365L112.658 5.24226C113.381 2.6072 111.41 -0.000409409 108.688 0.00645272L93.7817 0.0339013ZM104.792 5.06384C105.215 5.19423 105.427 5.46871 105.427 5.89416C105.427 6.06572 105.372 6.33334 105.27 6.69703L104.083 10.8692H98.0795L99.7032 5.06384H104.799H104.792Z" fill="#1C74F0"/>
<path d="M22.6284 0.000274658H4.26372L0 5.17432H7.80432L3.28136 21.9522H10.5672L14.981 5.17432H21.2026L22.6284 0.000274658Z" fill="#1C74F0"/>
<path d="M60.4761 9.15527e-05L58.5046 7.36316L55.8304 16.9358H50.7344C50.3114 16.8055 50.0999 16.531 50.0999 16.1055C50.0999 15.934 50.1545 15.6663 50.2568 15.3026L52.5149 7.36316L54.5206 9.15527e-05L47.3916 0.0344022L45.4474 7.36316L43.0938 15.9408C43.0119 16.2428 42.9642 16.5584 42.9642 16.9015C42.9642 17.4985 43.0801 18.0955 43.3121 18.6925C44.1853 20.8884 46.4434 21.9932 50.0931 21.9932L61.745 21.9589L65.7563 7.3563L67.762 9.15527e-05H60.4693H60.4761Z" fill="#1C74F0"/>
<path d="M144.386 9.15527e-05L143.036 4.75555L143.001 4.88593L138.383 21.9521H146.119L150.676 4.88593L152 9.15527e-05H144.386Z" fill="#1C74F0"/>
<path d="M44.3906 0.0275401V9.15527e-05H28.7343C27.8747 9.15527e-05 27.0288 0.233404 26.1828 0.700029C26.1283 0.727478 26.0737 0.741202 26.0191 0.76865C25.4051 1.07058 24.9003 1.40683 24.5046 1.79111C22.8606 3.32136 22.0419 5.1261 22.0419 7.20533C22.0419 8.34444 22.2329 9.3669 22.6081 10.259C23.4268 11.7961 24.8389 12.3588 26.1692 12.6196C26.8787 12.7637 27.6018 12.8117 28.3249 12.8117H28.4273C28.4273 12.8117 28.4409 12.8117 28.4477 12.8117H31.7905C32.4045 12.8117 32.9707 13.0381 32.9707 14.438C32.9707 15.4879 32.6228 15.9683 31.4085 15.9683H19.3745L17.6895 21.9658L33.5233 21.9932C34.8604 21.9932 36.2043 21.7325 37.3981 21.1217C38.0531 20.7786 38.5988 20.3943 39.0218 19.9552C40.7818 18.2122 41.6619 16.1604 41.6619 13.7998C41.6619 12.5029 41.5595 11.9814 41.157 10.9589C40.8773 10.4099 39.895 8.06996 35.9178 8.06996L31.0264 8.05624C30.5421 8.00134 30.1464 7.70627 30.1464 6.63577C30.1464 5.70939 30.4739 5.2908 31.5995 5.2908H42.8216H42.958L44.3156 0.267715L44.3906 0.0206779V0.0275401Z" fill="#1C74F0"/>
<path d="M117.802 21.9521L121.595 8.43365L125.367 12.8186L131.432 8.43365L127.707 21.9521L135.641 21.9246L141.706 9.15527e-05H133.288L127.823 3.76054L124.597 9.15527e-05H116.492L110.687 22.0001L117.802 21.9589V21.9521Z" fill="#1C74F0"/>
<path d="M83.7677 9.15527e-05L80.2271 11.6177L78.1805 9.15527e-05H71.0993L64.9732 21.9932H72.1226L73.9304 15.3575L75.0492 11.6863L77.5188 21.9932H84.5795L90.6988 9.15527e-05H83.7609H83.7677Z" fill="#1C74F0"/>
</svg>